<?xml version="1.0" encoding="UTF-8" standalone="no"?>
<!DOCTYPE svg PUBLIC "-//W3C//DTD SVG 1.1//EN" "http://www.w3.org/Graphics/SVG/1.1/DTD/svg11.dtd">
<svg width="100%" height="100%" viewBox="0 0 300 54" version="1.1" xmlns="http://www.w3.org/2000/svg" xmlns:xlink="http://www.w3.org/1999/xlink" xml:space="preserve" xmlns:serif="http://www.serif.com/" style="fill-rule:evenodd;clip-rule:evenodd;stroke-linejoin:round;stroke-miterlimit:2;">
    <g id="Text" transform="matrix(0.0909091,0,0,0.0909091,-51.708,-28.2223)">
        <g transform="matrix(4.16667,0,0,4.16667,1060.16,511.322)">
            <path d="M0,46.344L34.093,46.344L34.093,41.304L5.25,41.304L5.25,25.692L31.013,25.692L31.013,20.582L5.25,20.582L5.25,5.04L34.093,5.04L34.093,0L0,0L0,46.344Z" style="fill:rgb(242,238,229);fill-rule:nonzero;"/>
        </g>
        <g transform="matrix(4.16667,0,0,4.16667,1813,704.424)">
            <path d="M0,-46.344L-89.395,-46.344L-89.395,-7.35L-118.027,-46.344L-124.117,-46.344L-124.117,0L-118.867,0L-118.867,-39.134L-90.235,0L-84.144,0L-84.144,-41.235L-47.322,-41.235L-47.322,0L-42.072,0L-42.072,-41.235L-5.25,-41.235L-5.25,0L25.272,0L25.272,-5.04L0,-5.04L0,-46.344Z" style="fill:rgb(242,238,229);fill-rule:nonzero;"/>
        </g>
        <g transform="matrix(4.16667,0,0,4.16667,2004.93,511.322)">
            <path d="M0,46.344L34.092,46.344L34.092,41.304L5.25,41.304L5.25,25.692L31.012,25.692L31.012,20.582L5.25,20.582L5.25,5.04L34.092,5.04L34.092,0L0,0L0,46.344Z" style="fill:rgb(242,238,229);fill-rule:nonzero;"/>
        </g>
        <g transform="matrix(4.16667,0,0,4.16667,2480.52,603.932)">
            <path d="M0,1.891C-1.89,0.935 -3.967,0.141 -6.231,-0.489C-8.495,-1.119 -10.771,-1.69 -13.056,-2.204C-15.343,-2.717 -17.431,-3.289 -19.321,-3.92C-21.212,-4.549 -22.729,-5.342 -23.873,-6.3C-25.016,-7.256 -25.587,-8.504 -25.587,-10.045C-25.587,-10.838 -25.436,-11.678 -25.132,-12.565C-24.829,-13.451 -24.246,-14.303 -23.382,-15.12C-22.519,-15.937 -21.271,-16.602 -19.637,-17.116C-18.004,-17.628 -15.881,-17.886 -13.266,-17.886C-9.02,-17.886 -5.87,-17.08 -3.816,-15.47C-1.762,-13.86 -0.595,-11.888 -0.315,-9.555L5.075,-9.555C4.936,-11.888 4.2,-14.059 2.87,-16.065C1.539,-18.071 -0.455,-19.694 -3.115,-20.931C-5.775,-22.167 -9.16,-22.786 -13.266,-22.786C-19.054,-22.786 -23.406,-21.596 -26.323,-19.216C-29.239,-16.835 -30.697,-13.755 -30.697,-9.975C-30.697,-7.688 -30.126,-5.81 -28.983,-4.34C-27.84,-2.869 -26.323,-1.667 -24.432,-0.734C-22.542,0.199 -20.466,0.97 -18.202,1.576C-15.938,2.183 -13.686,2.755 -11.446,3.291C-9.206,3.828 -7.141,4.423 -5.251,5.076C-3.361,5.73 -1.845,6.559 -0.701,7.562C0.443,8.566 1.015,9.884 1.015,11.517C1.015,14.224 -0.13,16.267 -2.416,17.642C-4.702,19.019 -7.805,19.707 -11.726,19.707C-14.387,19.707 -16.826,19.381 -19.042,18.727C-21.259,18.074 -23.044,17.06 -24.397,15.683C-25.752,14.306 -26.497,12.497 -26.637,10.256L-32.098,10.256C-31.865,13.01 -31.037,15.484 -29.612,17.677C-28.19,19.872 -26.054,21.587 -23.207,22.823C-20.361,24.06 -16.65,24.677 -12.076,24.677C-6.383,24.677 -1.902,23.522 1.365,21.212C4.631,18.902 6.265,15.601 6.265,11.307C6.265,8.973 5.693,7.061 4.55,5.566C3.406,4.073 1.89,2.848 0,1.891" style="fill:rgb(242,238,229);fill-rule:nonzero;"/>
        </g>
        <g transform="matrix(4.16667,0,0,4.16667,2579.25,683.716)">
            <path d="M0,-36.404L16.172,-36.404L16.172,4.97L21.423,4.97L21.423,-36.404L37.594,-36.404L37.594,-41.374L0,-41.374L0,-36.404Z" style="fill:rgb(242,238,229);fill-rule:nonzero;"/>
        </g>
        <g transform="matrix(4.16667,0,0,4.16667,2891.07,610.499)">
            <path d="M0,-1.26L-15.682,-23.802L-22.052,-23.802L-2.591,4.2L-2.591,22.542L2.66,22.542L2.66,4.2L22.051,-23.802L15.681,-23.802L0,-1.26Z" style="fill:rgb(242,238,229);fill-rule:nonzero;"/>
        </g>
        <g transform="matrix(4.16667,0,0,4.16667,3087.67,704.424)">
            <path d="M0,-46.344L-5.25,-46.344L-5.25,0L25.272,0L25.272,-5.04L0,-5.04L0,-46.344Z" style="fill:rgb(242,238,229);fill-rule:nonzero;"/>
        </g>
        <g transform="matrix(4.16667,0,0,4.16667,3279.6,511.322)">
            <path d="M0,46.344L34.093,46.344L34.093,41.304L5.25,41.304L5.25,25.692L31.012,25.692L31.012,20.582L5.25,20.582L5.25,5.04L34.093,5.04L34.093,0L0,0L0,46.344Z" style="fill:rgb(242,238,229);fill-rule:nonzero;"/>
        </g>
        <g transform="matrix(4.16667,0,0,4.16667,3653.68,588.62)">
            <path d="M0,9.241C-1.144,7.748 -2.66,6.523 -4.55,5.566C-6.44,4.61 -8.517,3.816 -10.781,3.186C-13.045,2.556 -15.321,1.985 -17.606,1.471C-19.893,0.958 -21.981,0.386 -23.871,-0.245C-25.762,-0.874 -27.279,-1.668 -28.423,-2.625C-29.567,-3.581 -30.138,-4.829 -30.138,-6.37C-30.138,-7.163 -29.986,-8.004 -29.682,-8.89C-29.379,-9.776 -28.796,-10.628 -27.932,-11.445C-27.069,-12.262 -25.822,-12.927 -24.187,-13.441C-22.554,-13.953 -20.431,-14.211 -17.816,-14.211C-13.57,-14.211 -10.42,-13.406 -8.366,-11.795C-6.313,-10.185 -5.145,-8.213 -4.866,-5.88L0.525,-5.88C0.385,-8.213 -0.35,-10.384 -1.68,-12.39C-3.011,-14.396 -5.005,-16.019 -7.665,-17.256C-10.325,-18.492 -13.71,-19.111 -17.816,-19.111C-23.604,-19.111 -27.956,-17.921 -30.873,-15.541C-33.789,-13.16 -35.248,-10.08 -35.248,-6.3C-35.248,-4.013 -34.677,-2.135 -33.533,-0.665C-32.39,0.806 -30.873,2.008 -28.983,2.94C-27.092,3.874 -25.016,4.645 -22.752,5.251C-20.489,5.858 -18.236,6.43 -15.996,6.966C-13.756,7.503 -11.691,8.098 -9.801,8.751C-7.911,9.405 -6.395,10.234 -5.251,11.237C-4.107,12.241 -3.535,13.559 -3.535,15.192C-3.535,17.899 -4.68,19.942 -6.966,21.317C-9.252,22.694 -12.356,23.382 -16.276,23.382C-18.937,23.382 -21.376,23.056 -23.592,22.402C-25.809,21.749 -27.594,20.735 -28.947,19.357C-30.302,17.981 -31.047,16.172 -31.187,13.931L-36.648,13.931C-36.415,16.685 -35.587,19.159 -34.162,21.352C-32.74,23.547 -30.604,25.261 -27.757,26.498C-24.911,27.735 -21.2,28.352 -16.626,28.352C-10.933,28.352 -6.453,27.197 -3.185,24.887C0.081,22.577 1.715,19.276 1.715,14.982C1.715,12.648 1.143,10.736 0,9.241" style="fill:rgb(242,238,229);fill-rule:nonzero;"/>
        </g>
        <g transform="matrix(4.16667,0,0,4.16667,943.154,598.224)">
            <path d="M0,4.631C-0.269,8.1 -1.353,13.181 -5.127,16.616C-8.174,19.388 -11.934,20.398 -11.934,20.398C-13.856,20.915 -15.391,20.937 -16.371,20.937C-20.105,20.937 -23.313,20.109 -25.997,18.452C-28.681,16.796 -30.722,14.556 -32.122,11.732C-33.522,8.908 -34.222,5.77 -34.222,2.316C-34.222,-1.185 -33.511,-4.335 -32.087,-7.134C-30.664,-9.935 -28.599,-12.163 -25.892,-13.82C-23.185,-15.476 -19.965,-16.306 -16.23,-16.306C-12.685,-16.306 -9.662,-15.582 -7.165,-14.136C-4.669,-12.689 -2.72,-10.728 -1.319,-8.255L4.421,-8.255C2.694,-12.128 -0.002,-15.291 -3.665,-17.741C-7.329,-20.191 -11.657,-21.416 -16.651,-21.416C-21.271,-21.416 -25.296,-20.354 -28.727,-18.231C-32.157,-16.106 -34.806,-13.248 -36.672,-9.655C-38.539,-6.06 -39.472,-2.07 -39.472,2.316C-39.472,6.703 -38.563,10.693 -36.742,14.287C-34.922,17.881 -32.321,20.74 -28.936,22.862C-25.553,24.987 -21.505,26.047 -16.791,26.047C-13.99,26.047 -11.505,25.628 -9.335,24.788C-6.641,23.745 -4.79,22.331 -3.77,21.533C-2.082,20.212 -0.843,18.881 0.011,17.845L0.011,25.488L4.841,25.488L4.841,4.631L0,4.631Z" style="fill:rgb(242,238,229);fill-rule:nonzero;"/>
        </g>
    </g>
</svg>
